<svg width="580" height="400" xmlns="http://www.w3.org/2000/svg">
 <!-- Created with Method Draw - http://github.com/duopixel/Method-Draw/ -->
 <g>
  <title>background</title>
  <rect fill="#fff" id="canvas_background" height="402" width="582" y="-1" x="-1"/>
  <g display="none" overflow="visible" y="0" x="0" height="100%" width="100%" id="canvasGrid">
   <rect fill="url(#gridpattern)" stroke-width="0" y="0" x="0" height="100%" width="100%"/>
  </g>
 </g>
 <g>
  <title>Layer 1</title>
  <text font-weight="bold" font-style="normal" stroke="#000" transform="matrix(5.582485808180144,0,0,6.875645765643248,-451.201798571778,-1046.8536095978411) " xml:space="preserve" text-anchor="start" font-family="'Shadows Into Light', serif" font-size="24" id="svg_2" y="184.5" x="95.5" stroke-width="0" fill="#000000">A</text>
  <text font-weight="bold" stroke="#619E73" transform="matrix(5.2796762190488735,0,0,6.8150354376373725,-1353.0511303174746,-1349.6154186617548) " xml:space="preserve" text-anchor="start" font-family="'Shadows Into Light', serif" font-size="24" id="svg_3" y="230.353266" x="289" stroke-width="0" fill="#000000">P</text>
  <path stroke="#619E73" id="svg_1" d="m194.048849,213.451125c0,0 -14.142362,-0.778187 -21.632134,-3.753161c-7.489772,-2.97501 -10.984972,-6.768137 -10.984972,-6.768137c0,0 3.930582,3.271744 9.446399,5.750695c3.362829,1.511321 7.315131,2.728016 11.325223,2.728016c0,0 -6.191243,-2.603065 -10.835273,-0.743816c0,0 3.345502,-1.71061 9.137581,-0.409041c5.792421,1.301533 8.688094,0.557717 8.688094,0.557717c0,0 -9.786259,-0.037169 -14.030686,-2.119687c-4.244476,-2.082518 -5.293099,-3.272289 -5.293099,-3.272289c0,0 4.394174,3.38405 7.78956,3.793127c3.395385,0.409077 9.237396,-0.074592 9.237396,-0.074592c0,0 -6.041593,0.111761 -7.939258,-0.520584c-1.897324,-0.632018 -9.387095,-1.896418 -10.735116,0.743816c0,0 1.49772,-2.789165 8.338423,-1.971011c6.840703,0.818154 7.490162,0.558007 7.490162,0.558007c0,0 -12.133802,-3.495848 -18.924572,-1.524801c-6.790819,1.971011 -6.341381,3.644451 -6.341381,3.644451c0,0 0.449487,-5.801307 17.026956,-4.760175c0,0 -7.739286,-0.855323 -10.585808,-2.565896c-2.845741,-1.71061 -3.045714,-2.826079 -3.045714,-2.826079c0,0 3.245345,3.681366 7.240257,3.718535c3.994571,0.037423 5.14301,-0.222978 5.14301,-0.222978c0,0 -7.789511,-1.338702 -11.484684,-1.041422c-3.694832,0.297606 -9.686493,1.2644 -12.832412,-2.974973c0,0 2.945947,4.053565 10.985363,2.640525c8.039025,-1.413294 13.081878,0.14864 13.081878,0.14864c0,0 -12.183344,-1.747779 -14.680146,-3.495521c-2.49646,-1.747779 -2.795858,-4.760212 -2.795858,-4.760212c0,0 1.048624,5.057491 6.191243,5.541197c5.1434,0.483379 12.93257,0.371617 14.979934,2.11965c0,0 -5.14301,-2.826334 -10.485993,-2.454426c-5.342592,0.371908 -13.58159,5.503737 -17.775792,4.165035c-4.194153,-1.338702 -6.091818,-0.223232 -6.091818,-0.223232c0,0 1.747966,-1.301533 4.743406,-0.706683c2.996221,0.595176 3.64529,1.487632 8.7883,-1.152602c5.14301,-2.640234 13.881036,-5.912778 19.423601,-3.086735c0,0 -25.897646,-5.342163 -28.693504,-16.200706c0,0 2.462098,7.239925 15.111866,10.462401c12.650158,3.222476 13.382008,2.97501 13.382008,2.97501c0,0 -19.506382,-1.537445 -28.62766,-14.627437c0,0 7.922224,10.164795 20.239354,11.503497c0,0 -10.386177,-2.677367 -18.442237,-10.858507c-8.054937,-8.181431 -8.389087,-10.908902 -8.389087,-10.908902c0,0 9.787724,13.089955 28.296488,15.420775c0,0 -14.497891,-3.08728 -24.883726,-12.941861c-10.385787,-9.854581 -7.1401,-11.788423 -7.1401,-11.788423c0,0 -2.246946,-3.532726 -0.549644,-4.313711c0,0 -3.345502,-2.826334 -2.396645,-5.131829c0,0 2.396645,8.738857 14.630262,14.465862c12.233569,5.726715 13.282192,6.433362 13.282192,6.433362c0,0 -12.683055,-6.470531 -16.677626,-9.594434c-3.994571,-3.123649 -8.488512,-5.540906 -11.085129,-12.234414c0,0 2.496851,6.61917 10.386177,11.156114c7.888985,4.536943 9.43732,4.462351 9.43732,4.462351c0,0 -16.178256,-6.172961 -20.023079,-16.39945c0,0 2.246946,7.549086 20.073011,14.763432c0,0 -17.875949,-7.846656 -20.073011,-16.213895c0,0 -0.399213,-1.227195 0.349623,-1.82208c0,0 -0.898925,-1.599139 -0.599137,-3.607319c0.299398,-2.007925 0.649069,-4.164745 0.649069,-4.164745c0,0 -0.798768,8.47871 10.28602,15.023579c0,0 -13.082268,-11.677497 -8.421252,-21.296166c0,0 -0.999472,5.305502 2.129803,7.734894c0,0 -2.663535,-4.263608 -1.397953,-9.271831c0,0 -0.333369,5.305539 2.995831,10.115018c3.329248,4.80948 13.981193,14.131087 13.981193,14.131087c0,0 -12.51598,-10.908611 -14.513461,-17.056792c-1.99709,-6.148181 -0.866027,-10.164286 -0.866027,-10.164286c0,0 -1.131063,5.75124 3.728803,11.503242c4.859866,5.751785 6.524661,6.396229 6.524661,6.396229c0,0 -13.38274,-10.36332 -8.323243,-21.866272c0,0 -0.332295,11.651882 5.193284,16.659851c5.526653,5.008187 7.189984,5.156863 7.189984,5.156863c0,0 -11.384527,-6.693799 -10.985314,-16.064965c0.399896,-9.371202 2.531164,-9.866971 2.531164,-9.866971c0,0 -4.727885,7.932584 2.861702,15.568906c7.589929,7.636322 6.058921,6.197994 6.058921,6.197994c0,0 -10.785,-10.412298 -8.654464,-18.54417c2.130535,-8.131836 6.191243,-8.032464 6.191243,-8.032464c0,0 -4.459921,2.181344 -4.260339,7.189277c0.199631,5.007969 6.591188,14.726263 6.591188,14.726263c0,0 -7.124188,-13.337458 -5.193235,-17.453225c1.930221,-4.115477 5.992052,-5.354807 5.992052,-5.354807c0,0 -7.923737,3.371697 -3.32998,12.395989c0,0 -2.862385,-8.577283 4.793339,-12.593642c0,0 -5.458661,3.86772 -3.195413,11.057033c0,0 -0.665713,-8.826384 6.590798,-11.850662c0,0 -4.659161,2.727507 -4.726079,8.231208c0,0 0.99874,-5.553804 6.523978,-8.677454c0,0 -4.194543,4.759921 -3.927702,11.60236c0,0 3.129276,-6.742522 4.661016,-11.701186c0,0 0.265426,2.677658 -0.866027,5.999251c-1.131453,3.322102 -1.664063,3.619418 -1.664063,3.619418c0,0 4.060708,-4.462351 4.26068,-8.825585c0,0 0.199631,4.264407 -1.531008,7.834557c0,0 3.296351,-1.97399 3.711476,-6.347978c0.006492,-0.065182 0.011568,-0.130909 0.016595,-0.197145c0,0 0.931481,6.395648 -2.463904,11.800558c-3.395385,5.405165 -4.993311,5.900679 -4.993311,5.900679c0,0 7.524133,-5.305793 8.655587,-12.643746c0,0 0.133055,4.114932 -1.864035,7.684827c-1.997139,3.570113 -4.128016,6.29762 -4.128016,6.29762c0,0 10.052759,-6.793679 8.388696,-18.99038c0,0 1.930221,6.792335 0.199631,11.949198c-1.730639,5.156863 -10.253513,13.089992 -10.253513,13.089992c0,0 13.249685,-8.727012 13.84848,-22.560529c0,0 1.597926,8.18114 -4.493941,15.618465c0,0 8.987882,-7.586 8.7883,-14.800347c0,0 1.997481,3.644197 0.299398,8.627386c-1.697351,4.983153 -9.786259,16.659851 -18.175346,19.486184c0,0 22.769103,-9.148225 21.271334,-24.840991c0,0 2.49646,7.139754 -0.599137,14.056785c-3.095646,6.91674 -14.880118,17.477968 -14.880118,17.477968c0,0 16.877208,-11.60236 19.374059,-24.24636c0,0 0.798768,-3.867175 -0.199973,-6.172961c0,0 4.094728,1.338702 4.394126,7.065707c0.299398,5.726715 -3.694783,13.461863 -6.491031,18.891008c-2.796248,5.429399 -8.787909,12.643746 -8.787909,12.643746c0,0 19.473484,-22.163588 16.676894,-33.022386c0,0 4.993653,4.685583 4.394126,10.784496c-0.598795,6.098586 -4.793339,23.056043 -16.477312,30.7166c0,0 12.582898,-7.437324 16.078099,-20.973526c0,0 1.797508,-7.214347 1.497769,-11.156404c0,0 2.49646,8.330071 1.597877,14.577624c-0.898583,6.247553 -10.28602,20.23 -10.28602,20.23c0,0 10.28602,-11.676952 10.984972,-18.965637c0,0 1.098556,4.388013 0.299788,8.404409c-0.798768,4.016105 -5.392524,11.528022 -9.28767,15.916035c0,0 8.189114,-8.776026 9.886807,-12.643746c1.697741,-3.867465 1.397953,-6.098623 1.397953,-6.098623c0,0 1.997481,12.04886 -1.198322,17.701237c-3.195803,5.652377 -13.281851,14.056785 -13.980803,17.998552c0,0 4.693523,-9.147934 14.879728,-10.561228c10.186205,-1.41304 15.978283,0.743816 15.978283,0.743816c0,0 -15.478913,-3.718789 -23.767843,3.272543c0,0 -4.194153,3.793127 -4.29431,7.214347c0,0 10.785732,-5.652377 12.483083,-13.387562c1.698034,-7.734894 9.587409,-8.924956 9.587409,-8.924956c0,0 -8.7883,2.454426 -8.688485,9.148225c0.099815,6.693763 -9.986622,14.577333 -12.383267,14.354355c0,0 8.189114,-1.71061 11.085129,-6.842439c0,0 -1.897665,5.206131 -5.991661,8.218309c-4.094728,3.012142 -2.746707,4.313675 -2.746707,4.313675c0,0 1.398295,-3.23512 5.492681,-5.949983c4.094728,-2.714572 9.487203,-7.400155 9.537136,-10.561228c0.049883,-3.160782 4.493941,-6.321855 4.493941,-6.321855c0,0 -3.495201,3.309712 -3.64529,5.6898c-0.149699,2.379833 0.349671,6.098623 -5.492291,9.222526c-5.842353,3.123649 -8.28893,8.738893 -8.189114,11.193283c0,0 4.078084,-8.763891 16.062187,-10.499025c0,0 -11.451835,1.685576 -15.512543,11.30508c0,0 7.589197,-9.618959 17.709215,-12.147723c0,0 -10.785341,3.421219 -15.978283,11.800849c0,0 3.062407,-5.950782 12.649084,-6.198249c0,0 -7.989142,0.793084 -11.25074,6.396193c0,0 1.464432,-2.379288 6.923874,-3.222476c5.459393,-0.843188 10.052418,-3.768639 8.920964,-6.545668c0,0 1.397953,3.86692 -5.725161,6.445751c-7.123847,2.578831 -10.116797,8.753863 -10.116797,8.753863c0,0 5.800962,4.090516 10.491118,7.537568c-0.370269,1.930354 -1.648932,2.461511 -2.838762,2.665777c-0.425424,0.07303 -10.357233,-8.24516 -10.923131,-8.410876z" stroke-width="1.5" fill="none"/>
  <rect id="svg_4" height="150" width="203" y="94.5" x="67.5" stroke-width="1.5" stroke="#619E73" fill="none"/>
 </g>
</svg>