<svg width="240" height="155" xmlns="http://www.w3.org/2000/svg">
 <!-- Created with Method Draw - http://github.com/duopixel/Method-Draw/ -->

 <g>
  <title>background</title>
  <rect x="-1" y="-1" width="242" height="157" id="canvas_background" fill="#fff"/>
  <g id="canvasGrid" display="none">
   <rect id="svg_5" width="100%" height="100%" x="0" y="0" stroke-width="0" fill="url(#gridpattern)"/>
  </g>
 </g>
 <g>
  <title>Layer 1</title>
  <text fill="#000000" stroke-width="0" x="89.588655" y="172.695923" id="svg_2" font-size="24" font-family="'Shadows Into Light', serif" text-anchor="start" xml:space="preserve" transform="matrix(5.582485808180144,0,0,6.875645765643248,-451.201798571778,-1046.8536095978411) " stroke="#000" font-style="normal" font-weight="bold">A</text>
  <text fill="#000000" stroke-width="0" x="285.211889" y="218.563806" id="svg_3" font-size="24" font-family="'Shadows Into Light', serif" text-anchor="start" xml:space="preserve" transform="matrix(5.2796762190488735,0,0,6.8150354376373725,-1353.0511303174746,-1349.6154186617548) " stroke="#619E73" font-weight="bold">P</text>
  <path fill="none" stroke-width="1.5" d="m167.04885,131.088647c0,0 -14.14236,-0.77818 -21.63214,-3.75316c-7.48977,-2.97501 -10.98497,-6.76813 -10.98497,-6.76813c0,0 3.93058,3.27174 9.4464,5.75069c3.36283,1.51132 7.31513,2.72802 11.32522,2.72802c0,0 -6.19124,-2.60307 -10.83527,-0.74382c0,0 3.3455,-1.71061 9.13758,-0.40904c5.79242,1.30153 8.6881,0.55772 8.6881,0.55772c0,0 -9.78626,-0.03717 -14.03069,-2.11969c-4.24448,-2.08252 -5.2931,-3.27229 -5.2931,-3.27229c0,0 4.39418,3.38405 7.78956,3.79313c3.39539,0.40908 9.2374,-0.07459 9.2374,-0.07459c0,0 -6.0416,0.11176 -7.93926,-0.52059c-1.89732,-0.63202 -9.3871,-1.89642 -10.73512,0.74382c0,0 1.49772,-2.78917 8.33843,-1.97101c6.8407,0.81815 7.49016,0.558 7.49016,0.558c0,0 -12.1338,-3.49584 -18.92457,-1.5248c-6.79082,1.97101 -6.34138,3.64445 -6.34138,3.64445c0,0 0.44948,-5.8013 17.02695,-4.76017c0,0 -7.73928,-0.85532 -10.58581,-2.5659c-2.84574,-1.71061 -3.04571,-2.82608 -3.04571,-2.82608c0,0 3.24534,3.68137 7.24026,3.71854c3.99457,0.03742 5.14301,-0.22298 5.14301,-0.22298c0,0 -7.78951,-1.3387 -11.48469,-1.04142c-3.69483,0.29761 -9.68649,1.2644 -12.83241,-2.97497c0,0 2.94595,4.05356 10.98536,2.64052c8.03903,-1.41329 13.08188,0.14864 13.08188,0.14864c0,0 -12.18334,-1.74778 -14.68014,-3.49552c-2.49646,-1.74778 -2.79586,-4.76021 -2.79586,-4.76021c0,0 1.04862,5.05749 6.19124,5.5412c5.1434,0.48337 12.93257,0.37161 14.97993,2.11965c0,0 -5.14301,-2.82634 -10.48599,-2.45443c-5.34259,0.37191 -13.58159,5.50374 -17.77579,4.16503c-4.19415,-1.3387 -6.09182,-0.22323 -6.09182,-0.22323c0,0 1.74797,-1.30153 4.74341,-0.70668c2.99622,0.59518 3.64529,1.48763 8.7883,-1.1526c5.14301,-2.64024 13.88103,-5.91278 19.4236,-3.08674c0,0 -25.89765,-5.34216 -28.69351,-16.2007c0,0 2.4621,7.23992 15.11187,10.4624c12.65016,3.22247 13.38201,2.97501 13.38201,2.97501c0,0 -19.50638,-1.53745 -28.62766,-14.62744c0,0 7.92222,10.1648 20.23935,11.5035c0,0 -10.38617,-2.67737 -18.44223,-10.85851c-8.05494,-8.18143 -8.38909,-10.9089 -8.38909,-10.9089c0,0 9.78772,13.08995 28.29649,15.42077c0,0 -14.49789,-3.08728 -24.88373,-12.94186c-10.38579,-9.85458 -7.1401,-11.78842 -7.1401,-11.78842c0,0 -2.24695,-3.53273 -0.54964,-4.31371c0,0 -3.34551,-2.82634 -2.39665,-5.13183c0,0 2.39665,8.73886 14.63026,14.46586c12.23357,5.72672 13.2822,6.43336 13.2822,6.43336c0,0 -12.68306,-6.47053 -16.67763,-9.59443c-3.99457,-3.12365 -8.48851,-5.54091 -11.08513,-12.23441c0,0 2.49685,6.61917 10.38618,11.15611c7.88898,4.53694 9.43732,4.46235 9.43732,4.46235c0,0 -16.17826,-6.17296 -20.02308,-16.39945c0,0 2.24694,7.54909 20.07301,14.76343c0,0 -17.87595,-7.84665 -20.07301,-16.21389c0,0 -0.39921,-1.2272 0.34962,-1.82208c0,0 -0.89892,-1.59914 -0.59914,-3.60732c0.2994,-2.00793 0.64907,-4.16475 0.64907,-4.16475c0,0 -0.79876,8.47871 10.28602,15.02358c0,0 -13.08226,-11.67749 -8.42125,-21.29616c0,0 -0.99947,5.3055 2.1298,7.73489c0,0 -2.66353,-4.26361 -1.39795,-9.27183c0,0 -0.33337,5.30554 2.99583,10.11502c3.32925,4.80948 13.9812,14.13108 13.9812,14.13108c0,0 -12.51598,-10.90861 -14.51347,-17.05679c-1.99709,-6.14818 -0.86602,-10.16428 -0.86602,-10.16428c0,0 -1.13107,5.75124 3.7288,11.50324c4.85987,5.75178 6.52466,6.39623 6.52466,6.39623c0,0 -13.38274,-10.36332 -8.32324,-21.86627c0,0 -0.3323,11.65188 5.19328,16.65985c5.52666,5.00818 7.18999,5.15686 7.18999,5.15686c0,0 -11.38453,-6.6938 -10.98532,-16.06497c0.3999,-9.3712 2.53117,-9.86697 2.53117,-9.86697c0,0 -4.72789,7.93259 2.8617,15.56891c7.58993,7.63632 6.05892,6.19799 6.05892,6.19799c0,0 -10.785,-10.41229 -8.65446,-18.54417c2.13053,-8.13183 6.19124,-8.03246 6.19124,-8.03246c0,0 -4.45992,2.18134 -4.26034,7.18928c0.19963,5.00797 6.59119,14.72626 6.59119,14.72626c0,0 -7.12419,-13.33746 -5.19324,-17.45323c1.93022,-4.11547 5.99206,-5.3548 5.99206,-5.3548c0,0 -7.92374,3.37169 -3.32998,12.39599c0,0 -2.86239,-8.57729 4.79333,-12.59365c0,0 -5.45866,3.86772 -3.19541,11.05704c0,0 -0.66571,-8.82639 6.5908,-11.85066c0,0 -4.65916,2.7275 -4.72608,8.2312c0,0 0.99874,-5.5538 6.52398,-8.67745c0,0 -4.19454,4.75992 -3.9277,11.60236c0,0 3.12927,-6.74252 4.66101,-11.70119c0,0 0.26543,2.67766 -0.86602,5.99925c-1.13146,3.32211 -1.66407,3.61942 -1.66407,3.61942c0,0 4.06071,-4.46235 4.26068,-8.82558c0,0 0.19963,4.2644 -1.53101,7.83455c0,0 3.29635,-1.97399 3.71148,-6.34797c0.00649,-0.06519 0.01157,-0.13091 0.01659,-0.19715c0,0 0.93149,6.39565 -2.4639,11.80056c-3.39538,5.40516 -4.99331,5.90068 -4.99331,5.90068c0,0 7.52413,-5.30579 8.65559,-12.64375c0,0 0.13305,4.11493 -1.86404,7.68483c-1.99714,3.57011 -4.12801,6.29762 -4.12801,6.29762c0,0 10.05275,-6.79368 8.38869,-18.99038c0,0 1.93022,6.79233 0.19963,11.9492c-1.73064,5.15686 -10.25351,13.08999 -10.25351,13.08999c0,0 13.24968,-8.72701 13.84848,-22.56053c0,0 1.59793,8.18114 -4.49394,15.61847c0,0 8.98788,-7.586 8.7883,-14.80035c0,0 1.99748,3.6442 0.2994,8.62738c-1.69735,4.98316 -9.78626,16.65986 -18.17535,19.48619c0,0 22.7691,-9.14823 21.27133,-24.84099c0,0 2.49646,7.13975 -0.59913,14.05678c-3.09565,6.91674 -14.88012,17.47797 -14.88012,17.47797c0,0 16.87721,-11.60236 19.37406,-24.24636c0,0 0.79877,-3.86717 -0.19997,-6.17296c0,0 4.09472,1.3387 4.39412,7.06571c0.2994,5.72671 -3.69478,13.46186 -6.49103,18.891c-2.79625,5.4294 -8.78791,12.64375 -8.78791,12.64375c0,0 19.47349,-22.16359 16.6769,-33.02239c0,0 4.99365,4.68559 4.39412,10.7845c-0.59879,6.09859 -4.79334,23.05604 -16.47731,30.7166c0,0 12.5829,-7.43732 16.0781,-20.97353c0,0 1.79751,-7.21434 1.49777,-11.1564c0,0 2.49646,8.33007 1.59787,14.57762c-0.89858,6.24756 -10.28602,20.23 -10.28602,20.23c0,0 10.28602,-11.67695 10.98498,-18.96563c0,0 1.09855,4.38801 0.29978,8.40441c-0.79876,4.0161 -5.39252,11.52802 -9.28767,15.91603c0,0 8.18912,-8.77602 9.88681,-12.64374c1.69774,-3.86747 1.39795,-6.09863 1.39795,-6.09863c0,0 1.99749,12.04886 -1.19832,17.70124c-3.1958,5.65238 -13.28185,14.05678 -13.9808,17.99855c0,0 4.69352,-9.14793 14.87973,-10.56123c10.1862,-1.41304 15.97828,0.74382 15.97828,0.74382c0,0 -15.47891,-3.71879 -23.76784,3.27254c0,0 -4.19416,3.79313 -4.29431,7.21435c0,0 10.78573,-5.65238 12.48308,-13.38756c1.69803,-7.7349 9.58741,-8.92496 9.58741,-8.92496c0,0 -8.7883,2.45443 -8.68849,9.14823c0.09982,6.69376 -9.98662,14.57733 -12.38326,14.35435c0,0 8.18911,-1.71061 11.08513,-6.84244c0,0 -1.89767,5.20613 -5.99166,8.21831c-4.09473,3.01214 -2.74671,4.31368 -2.74671,4.31368c0,0 1.39829,-3.23512 5.49268,-5.94999c4.09473,-2.71457 9.4872,-7.40015 9.53714,-10.56122c0.04988,-3.16079 4.49394,-6.32186 4.49394,-6.32186c0,0 -3.4952,3.30971 -3.64529,5.6898c-0.1497,2.37983 0.34967,6.09862 -5.49229,9.22253c-5.84236,3.12365 -8.28893,8.73889 -8.18912,11.19328c0,0 4.07809,-8.76389 16.06219,-10.49903c0,0 -11.45184,1.68558 -15.51254,11.30508c0,0 7.58919,-9.61895 17.70921,-12.14772c0,0 -10.78534,3.42122 -15.97828,11.80085c0,0 3.06241,-5.95078 12.64908,-6.19825c0,0 -7.98914,0.79309 -11.25074,6.39619c0,0 1.46443,-2.37928 6.92388,-3.22247c5.45939,-0.84319 10.05241,-3.76864 8.92096,-6.54567c0,0 1.39795,3.86692 -5.72516,6.44575c-7.12385,2.57883 -10.1168,8.75386 -10.1168,8.75386c0,0 5.80096,4.09052 10.49112,7.53757c-0.37027,1.93036 -1.64893,2.46151 -2.83876,2.66578c-0.42543,0.07303 -10.35723,-8.24516 -10.92313,-8.41088l-0.00001,0z" id="svg_1" stroke="#619E73"/>
  <rect stroke="#619E73" fill="none" stroke-width="1.5" x="44.999998" y="9.5" width="187.000004" height="140.999997" id="svg_4"/>
 </g>
</svg>